<?xml version="1.0" encoding="UTF-8" standalone="no"?>
<!-- Created with Inkscape (http://www.inkscape.org/) -->
<svg xmlns:rdf="http://www.w3.org/1999/02/22-rdf-syntax-ns#" xmlns="http://www.w3.org/2000/svg" xmlns:cc="http://web.resource.org/cc/" xmlns:xlink="http://www.w3.org/1999/xlink" xmlns:dc="http://purl.org/dc/elements/1.1/" xmlns:svg="http://www.w3.org/2000/svg" xmlns:inkscape="http://www.inkscape.org/namespaces/inkscape" xmlns:sodipodi="http://sodipodi.sourceforge.net/DTD/sodipodi-0.dtd" xmlns:ns1="http://sozi.baierouge.fr" id="svg2" viewBox="0 0 744.09 1052.4" version="1.0" inkscape:version="0.91 r13725">
  <defs id="defs4">
    <linearGradient id="linearGradient15795" y2="537.06" gradientUnits="userSpaceOnUse" x2="724.2" y1="537.06" x1="24.505">
      <stop id="stop15791" style="stop-color:#ecd83b" offset="0"/>
      <stop id="stop15793" style="stop-color:#ecd83b;stop-opacity:0" offset="1"/>
    </linearGradient>
    <linearGradient id="linearGradient15803" y2="537.06" gradientUnits="userSpaceOnUse" x2="724.2" y1="537.06" x1="24.505">
      <stop id="stop15807" style="stop-color:#aa184a" offset="0"/>
      <stop id="stop15811" style="stop-color:#b20853;stop-opacity:.49804" offset=".5"/>
      <stop id="stop15813" style="stop-color:#d4d225;stop-opacity:.24706" offset=".75"/>
      <stop id="stop15815" style="stop-color:#250a2f;stop-opacity:.12157" offset=".875"/>
      <stop id="stop15817" style="stop-color:#f3140e;stop-opacity:.058824" offset=".9375"/>
      <stop id="stop15819" style="stop-color:#dc1323;stop-opacity:.027451" offset=".96875"/>
      <stop id="stop15809" style="stop-color:#c51339;stop-opacity:0" offset="1"/>
    </linearGradient>
  </defs>
  <g id="layer1">
    <g id="g14309" style="stroke:url(#linearGradient15795);fill:url(#linearGradient15803)">
      <path id="path14323" style="stroke:url(#linearGradient15795);fill:url(#linearGradient15803)" d="m377.61 811.95c-28.33-4.85-54.88-14.49-75.08-27.27-10.73-6.79-23.55-14.35-28.5-16.81-11.22-5.57-79.73-12.25-83.68-8.17-1.75 1.8-1.07 7.48 1.78 14.98 8.88 23.34-4.36 27.86-32.55 11.12-24.4-14.48-43.05-43.56-43.05-67.11 0-4.28-2.17-9.64-4.82-11.91-14.029-12.03-40.974-61.93-51.82-95.97-3.563-11.19-10.978-27.55-16.478-36.37-12.261-19.65-22.203-61.6-16.986-71.67 2.761-5.33 6.204-6.4 20.622-6.4 14.066 0 19.957-1.73 31.459-9.27 7.784-5.1 15.327-12.46 16.763-16.36s9.03-14.02 16.87-22.49c7.84-8.46 25.37-30.73 38.96-49.47 33.22-45.83 52.47-65.84 83.29-86.59 34.66-23.33 57.31-33.85 68.1-31.62 5.65 1.17 9.02 0.35 10.05-2.44 0.89-2.36 8.51-5.12 17.53-6.33 8.78-1.18 23.38-4.44 32.46-7.25 24.26-7.52 139.84-7.31 168.94 0.31 11.24 2.94 25.55 5.34 31.8 5.34s15.28 1.23 20.06 2.74c4.79 1.5 14.77 4.51 22.2 6.67 24.74 7.21 31.71 26.48 15.6 43.12-6.75 6.97-15.35 10.34-43.84 17.19-40.47 9.71-66.5 22.2-94.29 45.24-23.84 19.76-28.87 30.76-24.7 54.01 4.67 26.12 7.04 29.87 52.75 83.54 8.71 10.22 18.52 22.03 21.81 26.23 4.48 5.72 7.01 6.83 10.08 4.41 2.25-1.78 10.16-5.56 17.59-8.4 7.42-2.84 26.16-15.49 41.63-28.11 31.68-25.87 56.57-39.55 85.68-47.1 19.03-4.93 20.12-4.91 26.05 0.64 3.41 3.18 7.35 8.02 8.77 10.75 4.26 8.22-4.63 35.86-24.62 76.57l-18.71 38.09-2.17 53.31c-2.64 64.7-3.85 71.05-16.16 84.53-7.81 8.55-11.94 10.6-21.41 10.6-15.22 0-19.22-3.02-65.56-49.43l-39-39.06-19.86-0.59c-16.82-0.5-20.73 0.41-25.5 5.91-7.03 8.1-54.53 47.57-74.64 62.02-11.02 7.91-15.26 13.09-15.99 19.51-1.22 10.69 6.04 31.09 16.04 45.09 8.49 11.88 9.67 23.17 2.7 25.93-6.11 2.42-19.59 1.87-40.17-1.66zm-222.08-51.9c0-3.14-9.14-7.42-11.23-5.26-0.75 0.78-0.48 2.91 0.61 4.72 2.39 4 10.62 4.42 10.62 0.54zm52.5-80.88c-1.02-1.71-2.45-3.1-3.18-3.1s-1.32 1.39-1.32 3.1c0 1.7 1.43 3.09 3.18 3.09 1.74 0 2.34-1.39 1.32-3.09zm-149.18-157.95l9.824-12.22-15.073 0.66c-8.29 0.36-15.073 1.25-15.073 1.98-0.003 3.59 7.415 21.9 8.851 21.85 0.906-0.03 6.068-5.55 11.471-12.27zm467.03-229.73c1.57-1.49 5.52-2.7 8.79-2.7 3.26 0 10.75-1.59 16.65-3.53 5.89-1.95 12.73-4.13 15.21-4.86 3.64-1.07 3.4-1.96-1.23-4.64-7.23-4.19-73.77-7.45-73.77-3.61 0 1.54 3.43 8.02 7.63 14.4 6.55 9.96 8.76 11.31 15.75 9.61 4.46-1.08 9.4-3.19 10.97-4.67z"/>
      <path id="path14321" style="stroke:url(#linearGradient15795);fill:url(#linearGradient15803)" d="m400.03 795.07c-10.43-12.1-14.43-14.42-30.5-17.73-10.18-2.09-21.08-6.21-24.24-9.16-7.16-6.7-12.27-6.78-19.2-0.31-4.88 4.57-6.09 4.6-12.41 0.32-4.92-3.33-11.27-4.25-21.26-3.09-7.84 0.92-17.21 0.19-20.82-1.62-3.61-1.8-20.07-4.25-36.57-5.45-51.21-3.7-47.87-4.11-48.98 5.94-0.55 4.89 0.47 10.4 2.25 12.24 4.67 4.83 3.97 14.49-1.07 14.49-4.9 0-15.46-14.14-17.1-22.91-1.35-7.22-13.15-16.36-24.82-19.23-7.9-1.95-8.55-1.51-6.98 4.68 2.92 11.53-4.72 5.79-12.05-9.05-3.71-7.52-6.75-17.57-6.75-22.35 0-5.63-4.53-14.43-12.88-25.02-17.403-22.06-33.217-51.94-42.337-80-4.153-12.78-9.62-27.33-12.149-32.34s-4.606-10.63-4.616-12.5c-0.01-1.86-2.642-5.84-5.849-8.84-7.05-6.59-16.51-46.26-12.705-53.28 1.98-3.65 4.229-0.66 9.417 12.54 3.748 9.54 7.749 17.35 8.89 17.35 2.204 0 12.955-14.53 38.423-51.91 8.632-12.67 23.556-32.32 33.176-43.66 9.61-11.34 32.6-40.14 51.09-63.99 35.7-46.08 44.27-53.9 86.38-78.89 30.57-18.14 38.88-21.02 46.52-16.09 4.43 2.85 6.57 2.29 11.32-2.98 6.08-6.73 12.32-5.67 12.32 2.1 0 6.81 4.76 5.33 10.15-3.16 8.05-12.7 29.84-17.36 90.45-19.36l54.11-1.79 11.78 20.81c11.56 20.41 11.97 20.76 22.01 18.81 5.63-1.09 12.59-3.5 15.47-5.35 7.05-4.55 15.03-0.94 15.03 6.8 0 3.46 1.35 6.29 3.01 6.29s2.67-4.53 2.25-10.06c-0.73-9.68-0.31-10.09 10.98-10.74 8.08-0.47 13.05 0.98 15.91 4.64 3.82 4.88 4.02 4.77 2.42-1.29-1.48-5.59-0.24-6.84 8.09-8.11 13.38-2.05 15.39-0.82 19.17 11.66 2.8 9.24 2.58 10.81-1.53 10.85-4.08 0.04-4.15 0.47-0.44 2.89 6.89 4.51 9.84 0.33 7.77-11.04-2.59-14.26 5.53-13.57 13.01 1.1 2.84 5.58 2.6 8.83-1.25 16.51-5.76 11.5-14.94 15.74-52.39 24.15-15.68 3.52-31.54 7.31-35.25 8.42-4.14 1.24-6.75 0.68-6.75-1.44 0-1.9-2.73-3.46-6.06-3.46-4.96 0-5.71 1.4-4.17 7.75 1.19 4.89 0.61 7.74-1.57 7.74-6.95 0-57.36 40.81-60.74 49.17-1.12 2.78-2.13 12.72-2.25 22.09-0.33 27.45 17.73 59.31 58.27 102.79 7.44 7.98 13.52 16.6 13.52 19.16 0 6.86 10.69 9.17 18.61 4.04 3.79-2.46 11.71-6.04 17.59-7.97 5.89-1.92 23.35-13.98 38.8-26.79 30.69-25.44 54.82-38.8 84.77-46.91l19.42-5.26 7.59 8.46c7.52 8.37 7.55 8.64 3.2 26.17-2.41 9.74-12.66 34.86-22.77 55.82l-18.38 38.11-2.15 55.51c-2.34 60.37-5.09 74.03-16.8 83.55-9.44 7.66-26.82 8.15-36.96 1.03-4.08-2.86-26.1-23.88-48.93-46.7-25.92-25.9-43.11-40.86-45.75-39.81-2.33 0.92-4.24 0.5-4.24-0.94 0-3.45-18.58-12.67-21.63-10.73-1.3 0.83-2.37 3.93-2.37 6.88 0 7.03-18.45 24.94-55.5 53.89-44.93 35.12-50.06 40.58-47.83 50.98 4.21 19.55 8.1 28.97 16.49 39.88 17.36 22.55 8.12 27.48-10.66 5.7zm-93.02-56.63c1.6-5.45 1.1-6.98-1.92-5.96-2.23 0.76-4.5 5.46-5.04 10.44-1.12 10.32 3.49 7.36 6.96-4.48zm40.52-6.6c0-1.71-2.78-3.1-6.18-3.1-3.39 0-5.34 1.39-4.32 3.1 1.02 1.7 3.8 3.09 6.18 3.09 2.37 0 4.32-1.39 4.32-3.09zm16.06-5.23c2.82-2.91-15.81-20.09-19.34-17.83-1.56 0.99 0.23 5.81 3.98 10.71 6.81 8.92 11.51 11.1 15.36 7.12zm-215.98-5.62c-1.8-4.85-10.08-6.55-10.08-2.06 0 3.78 3.45 6.71 7.91 6.71 2.23 0 3.16-1.98 2.17-4.65zm160.92 1.55c0-1.7-1.35-3.1-3-3.1s-3 1.4-3 3.1 1.35 3.1 3 3.1 3-1.4 3-3.1zm-117-7.93c0-2.45-1.35-4.46-3-4.46s-3 2.87-3 6.38 1.35 5.51 3 4.46 3-3.92 3-6.38zm-21-1.55c0-1.6-2.03-2.91-4.5-2.91-4.64 0-5.96 3.65-2.58 7.14 2.39 2.48 7.08-0.32 7.08-4.23zm-32.72-12.21c1.58 0 4.15-3.48 5.72-7.74s4.23-7.75 5.93-7.75c1.69 0 3.07-2.83 3.07-6.29s2.02-7.1 4.5-8.08c2.47-0.98 4.5-4.34 4.5-7.46 0-3.13 1.35-6.55 3.01-7.61 1.66-1.05 2.19-5.32 1.18-9.48-1.12-4.6-0.54-7.55 1.48-7.55 1.83 0 3.33-2.79 3.33-6.2 0-7.63-5.57-8.18-7.87-0.77-2.19 7.1-7.15 19.54-10.48 26.29-1.46 2.96-2.65 7.49-2.65 10.07s-1.19 4.69-2.65 4.69-3.44 2.44-4.41 5.42-2.95 7.51-4.39 10.07c-7.72 13.69-9.53 19.2-7.41 22.59 1.57 2.5 2.67 1.43 3.31-3.23 0.53-3.83 2.26-6.97 3.83-6.97zm17.72 4.65c1.57-4.26 4.14-7.74 5.71-7.74 2.32 0 12.29-16.72 12.29-20.62 0-0.59-2.03-1.07-4.5-1.07-2.48 0-4.5 2.13-4.5 4.74s-2.03 5.55-4.5 6.53c-2.48 0.98-4.5 3.77-4.5 6.2 0 2.42-2.03 5.21-4.5 6.19-5.02 1.99-6.24 13.52-1.43 13.52 1.69 0 4.36-3.49 5.93-7.75zm178.76-10.05c-3.27-3.39-5.52 1.99-3.17 7.59 2.23 5.31 2.4 5.31 3.64-0.11 0.71-3.11 0.51-6.48-0.47-7.48zm-151.76 0.53c0-2.89-2.04-4.47-5-3.87-7.53 1.5-8.56 8.74-1.25 8.74 3.68 0 6.25-2 6.25-4.87zm123 0.41c0-6.47-6.22-9.45-9.29-4.45-4.07 6.63-3.22 8.91 3.29 8.91 3.3 0 6-2.01 6-4.46zm78 1.55c0-3.66-5.85-7.57-8-5.35s1.64 8.26 5.18 8.26c1.55 0 2.82-1.31 2.82-2.91zm-172.2-16.18c1.2-2.01-0.56-5.87-4-8.75-3.39-2.83-6.66-7.83-7.27-11.11-1.66-8.89-6.89-7.22-7.98 2.55-0.52 4.69 0.33 8.52 1.9 8.52s3.56 2.79 4.42 6.2c1.71 6.76 9.5 8.33 12.93 2.59zm169.2-16.54c0-2.55-1.58-4.64-3.51-4.64-1.94 0-6.02-2.34-9.08-5.2-4.19-3.92-6.4-4.32-9.01-1.62s-2.11 5.11 2.04 9.84c6.47 7.39 19.56 8.48 19.56 1.62zm-202.46-10.29c-2.39-2.46-7.55 3.13-5.71 6.19 1.24 2.08 2.79 1.77 4.38-0.9 1.36-2.26 1.95-4.64 1.33-5.29zm181.46-24.17c0-5.44-2.96-5.27-10.49 0.6-5.04 3.94-5.29 5.11-1.6 7.47 5.05 3.23 12.09-1.47 12.09-8.07zm-166.35-7.12c-3.02-5.04-7.65-0.92-7.65 6.8 0 6.15 0.38 6.28 4.85 1.66 2.67-2.75 3.93-6.56 2.8-8.46zm132.16 3.7c-0.99-1.03-1.7 0.8-1.57 4.06 0.14 3.61 0.85 4.35 1.81 1.87 0.87-2.23 0.76-4.91-0.24-5.93zm55.19-0.84c0-1.71-2.03-3.1-4.5-3.1-2.48 0-4.5 1.39-4.5 3.1 0 1.7 2.02 3.09 4.5 3.09 2.47 0 4.5-1.39 4.5-3.09zm-170.16-6.32c-0.88-3.48-2.27-5.63-3.09-4.78-1.62 1.67 1.24 11.1 3.37 11.1 0.73 0 0.6-2.85-0.28-6.32zm296.03 0.36c1.7-3.27 5.09-8.02 7.53-10.54 3.56-3.68 3.66-4.9 0.5-6.15-2.17-0.86-5.17-0.65-6.67 0.47-3.59 2.68-10.23 15.04-10.23 19.04 0 5.27 5.6 3.49 8.87-2.82zm-136.7-2.01c0.99-2.68 0.28-7.82-1.58-11.41-2.83-5.47-2.31-7.44 3.16-12.02l6.55-5.48-6.15-6.35c-7.85-8.1-10.27-8.13-5.43-0.05 2.46 4.09 2.73 7.07 0.78 8.52-5.8 4.31-10.63 23.12-7.07 27.55 4.37 5.44 7.53 5.19 9.74-0.76zm13.83-12.76c0-8-0.18-8.1-4.4-2.33-5.67 7.74-5.7 10.66-0.1 10.66 2.88 0 4.5-2.99 4.5-8.33zm132-18c0-2.56-1.35-4.65-3-4.65s-3 2.09-3 4.65c0 2.55 1.35 4.65 3 4.65s3-2.1 3-4.65zm-298.5-1.55c-1.02-1.7-3.12-3.1-4.68-3.1-1.55 0-2.82 1.4-2.82 3.1s2.1 3.1 4.68 3.1c2.57 0 3.84-1.4 2.82-3.1zm-31.38-9.22c-6.1-3.89-10.14-0.42-5.79 4.98 2.6 3.23 4.53 3.56 6.87 1.14 2.33-2.41 2.03-4.13-1.08-6.12zm339.43-0.75c-2.15-2.22-3.55-2.4-3.55-0.46 0 4.13 3.55 7.8 5.55 5.73 0.85-0.88-0.05-3.25-2-5.27zm-318.55-5.7c0-1.81-1.35-2.42-3-1.37s-3 2.53-3 3.28 1.35 1.37 3 1.37 3-1.48 3-3.28zm177 1.31c0-4.05-15.5-16.62-20.4-16.54-3.62 0.06-2.04 2.74 5.4 9.21 10.29 8.95 15 11.25 15 7.33zm-194.25-11.72c0.41-1.56-0.94-3.42-3-4.13s-3.75 1.03-3.75 3.87c0 5.25 5.38 5.46 6.75 0.26zm164.25 1.29c0-1.7-1.35-3.09-3-3.09s-3 1.39-3 3.09c0 1.71 1.35 3.1 3 3.1s3-1.39 3-3.1zm163.81-2.82c2.39 2.04 5.31 2.62 6.51 1.29s0.49-3.04-1.57-3.8-3.75-3.19-3.75-5.41c0-2.21-2.57-4.72-5.71-5.57-4.47-1.2-5.99 0.41-6.99 7.4-1.49 10.56 0.77 14.21 4.53 7.28 2.1-3.89 3.55-4.14 6.98-1.19zm-295.21-7.09c-1.93-1.99-4.5-2.59-5.71-1.33-1.22 1.26-0.27 3.53 2.11 5.05 5.6 3.57 8.13 0.96 3.6-3.72zm-27.6-11.59c0-4.21-5.29-6.97-7.21-3.76-1.79 2.99 0.8 6.67 4.71 6.67 1.37 0 2.5-1.31 2.5-2.91zm152.03-2.05c2.03-5.46-5.07-11.73-8.85-7.82-2.89 2.98 0.37 12.78 4.23 12.78 1.53 0 3.61-2.23 4.62-4.96zm-131.03-7.61c0-1.6-2.03-2.92-4.5-2.92-4.64 0-5.96 3.66-2.58 7.15 2.39 2.47 7.08-0.32 7.08-4.23zm-18-9.89c0-3.63-4.37-2.72-5.63 1.16-0.61 1.92 0.4 2.97 2.25 2.33 1.86-0.64 3.38-2.21 3.38-3.49zm6-20.91c0-6.54-4.37-8.34-7.5-3.1-2.19 3.66 0.65 9.3 4.68 9.3 1.55 0 2.82-2.79 2.82-6.2zm18-6.2c0-1.7-2.7-3.1-6-3.1s-6 1.4-6 3.1c0 1.71 2.7 3.1 6 3.1s6-1.39 6-3.1zm133.5 0c-1.02-1.7-2.45-3.1-3.18-3.1s-1.32 1.4-1.32 3.1c0 1.71 1.43 3.1 3.18 3.1 1.74 0 2.34-1.39 1.32-3.1zm39.32-13.16c-0.4-8.51-1.74-10.23-8.65-11.05-4.49-0.54-8.17 0.5-8.17 2.32s1.88 3.3 4.17 3.3c2.3 0 5.03 3.49 6.06 7.75 2.7 11.12 7.15 9.55 6.59-2.32zm-184.82 2.32c0-2.56-1.27-4.65-2.82-4.65-3.79 0-6.5 4.84-4.1 7.32 3.38 3.48 6.92 2.12 6.92-2.67zm28.66 1.28c3.09-5.17-3.86-11.09-8-6.82-3.46 3.58-1.29 10.19 3.34 10.19 1.45 0 3.55-1.52 4.66-3.37zm106.65-6.85c-3.85-3.97-7.75-0.9-4.9 3.86 1.1 1.85 3.38 2.48 5.06 1.41 2.05-1.31 2-3.04-0.16-5.27zm17.69 0.92c0-1.7-1.43-3.1-3.18-3.1-1.74 0-2.34 1.4-1.32 3.1 1.02 1.71 2.45 3.1 3.18 3.1 0.72 0 1.32-1.39 1.32-3.1zm-141.75-10.62c-6.45-4.92-7.18-15.59-0.9-13.1 3.35 1.33 3.8 0.2 1.96-4.94-3.5-9.78-9.31-10.42-9.31-1.03 0 4.4-1.35 8-3 8-5.46 0-3.11 9.76 3.75 15.55 4.49 3.79 7.76 4.67 9.75 2.62 2-2.06 1.25-4.43-2.25-7.1zm134.03-9c-2.43-6.54-6.92-6.64-9.31-0.2-2.03 5.46 5.07 11.73 8.85 7.82 1.31-1.35 1.51-4.78 0.46-7.62zm-112.81 2.03c-1.29-6.91-6.62-7.06-7.9-0.22-0.63 3.39 0.84 5.42 3.93 5.42 3.01 0 4.56-2.03 3.97-5.2zm159.53-7.19c0-1.71-1.27-3.1-2.82-3.1-1.56 0-3.66 1.39-4.68 3.1-1.02 1.7 0.25 3.09 2.82 3.09s4.68-1.39 4.68-3.09zm-39-10.85c-2.05-2.55-4.92-4.64-6.37-4.64s-2.63 2.09-2.63 4.64c0 2.67 2.71 4.65 6.37 4.65 5.32 0 5.75-0.76 2.63-4.65zm-121.53-1.6c-1.04-1.73-3.14-2.34-4.68-1.36-4.16 2.65-3.38 4.51 1.89 4.51 2.57 0 3.83-1.42 2.79-3.15zm175-4.08c0.57-3.05-0.96-5.16-3.75-5.16-2.78 0-4.72 2.65-4.72 6.45 0 7.55 7.01 6.49 8.47-1.29zm-28.2-14c5.05-10.09 1.77-16.08-8.62-15.75-5.8 0.18-5.77 0.35 0.6 3 8.35 3.46 8.83 12.31 0.78 14.49-3.28 0.88-5.22 2.84-4.32 4.35 3 5.01 7.08 2.86 11.56-6.09zm13.73 4.01c0-2.66-1.35-3.97-3-2.92-1.65 1.06-3 3.23-3 4.83 0 1.61 1.35 2.92 3 2.92s3-2.17 3-4.83zm-153-4.47c0-3.44-2-6.19-4.5-6.19s-4.5 2.75-4.5 6.19c0 3.45 2 6.2 4.5 6.2s4.5-2.75 4.5-6.2zm123 3.1c0-1.7-2.11-3.1-4.68-3.1s-3.84 1.4-2.82 3.1c1.02 1.71 3.12 3.1 4.68 3.1 1.55 0 2.82-1.39 2.82-3.1zm53.21-6.97c-0.56-5.55 0.66-6.82 6-6.24l6.7 0.73-6.31-6.52c-5.1-5.26-6.81-5.7-8.91-2.28-3.57 5.82-3.37 21.28 0.27 21.28 1.63 0 2.65-3.13 2.25-6.97zm-192.71-8.52c-1.02-1.7-2.45-3.1-3.18-3.1s-1.32 1.4-1.32 3.1c0 1.71 1.43 3.1 3.18 3.1 1.74 0 2.34-1.39 1.32-3.1zm23.87-2.88c2.22-3.71-3.42-7.38-7.42-4.83-3.35 2.14-1.15 7.71 3.05 7.71 1.45 0 3.42-1.3 4.37-2.88zm151.63-8.15c0-2.65-1.35-3.96-3-2.91s-3 3.23-3 4.83 1.35 2.91 3 2.91 3-2.17 3-4.83zm-165.69-6.98c0.66-2.02-0.95-3.68-3.56-3.68s-4.75 2.21-4.75 4.91c0 5.47 6.46 4.52 8.31-1.23zm150.69-2.31c0-0.75-1.35-1.37-3-1.37s-3 1.48-3 3.28c0 1.81 1.35 2.42 3 1.37s3-2.53 3-3.28zm36.82-3.17c1.27-2.25 4.31-6.15 6.75-8.67 6-6.2 5.59-8.82-0.82-5.23-2.89 1.61-8.96 3.74-13.5 4.73-6.39 1.39-8.25 3.58-8.25 9.69 0 6.77 0.97 7.59 6.75 5.73 3.71-1.19 7.79-4 9.07-6.25zm-166.57 1.03c-1.42-4.39-6.24-3.9-7.75 0.77-0.55 1.71 1.25 3.1 4 3.1s4.44-1.74 3.75-3.87zm147.75-8.52c0-1.34-1.98-3.22-4.4-4.18-4.95-1.96-8.9 2.6-6.18 7.14 1.97 3.29 10.58 0.88 10.58-2.96zm-159.69-5.62c0.66-2.02-0.95-3.68-3.56-3.68s-4.75 2.21-4.75 4.91c0 5.47 6.46 4.52 8.31-1.23zm19.98-4.03c-3.03-5.05-7.29-2.81-7.29 3.83 0 5.47 0.75 5.94 4.47 2.75 2.45-2.11 3.72-5.07 2.82-6.58zm164.76-10.39c0.93-2.5 0.55-5.27-0.84-6.16-3.21-2.05-9.83 5.94-7.18 8.67 3.19 3.3 6.21 2.36 8.02-2.51zm58.95 1.45c0-1.7-1.35-3.1-3-3.1s-3 1.4-3 3.1 1.35 3.1 3 3.1 3-1.4 3-3.1zm-232.09-7.91c8.15-9.09 9.04-13.78 2.59-13.78-2.48 0-4.5 2.64-4.5 5.87 0 3.22-2.03 6.66-4.5 7.65-2.48 0.98-4.5 3.22-4.5 4.97 0 5.17 3.34 3.73 10.91-4.71zm19.09 1.81c0-4.15-1.44-5.53-4.5-4.32-2.48 0.99-4.5 3.73-4.5 6.1 0 2.38 2.02 4.32 4.5 4.32s4.5-2.74 4.5-6.1zm234-10.73c0-9.17-7.32-19.47-10.3-14.49-1.22 2.04-0.66 5.65 1.25 8.02 2.45 3.05 2.56 6.06 0.36 10.3-1.7 3.29-2.26 6.86-1.23 7.92 3.2 3.31 9.92-4.64 9.92-11.75zm-33.55 4.2c2.93-4.84 4.86-5.6 7.82-3.06 2.89 2.48 4.88 2.19 7.53-1.1 2.88-3.58 2.41-5.12-2.39-7.77-4.85-2.68-7.7-1.8-15.19 4.71-5.07 4.4-9.22 9.28-9.22 10.83 0 5.24 7.53 2.87 11.45-3.61zm-190.7-7.25c0.41-1.56-0.94-3.42-3-4.13s-3.75 1.03-3.75 3.87c0 5.25 5.38 5.45 6.75 0.26zm269.25-11.1c0-1.71-1.35-3.1-3-3.1s-3 1.39-3 3.1c0 1.7 1.35 3.1 3 3.1s3-1.4 3-3.1zm-261-6.38c0-3.51-1.35-5.52-3-4.47-1.65 1.06-3 3.93-3 6.38 0 2.46 1.35 4.47 3 4.47s3-2.87 3-6.38zm224.31-0.4c-0.65-2.02-2.79-4.23-4.75-4.91-2.19-0.75-2.86 0.67-1.74 3.68 2.09 5.63 8.29 6.81 6.49 1.23zm62.19 0.58c2.22-3.71-6.63-3.71-15 0-5.06 2.25-4.5 2.7 3.57 2.88 5.27 0.12 10.41-1.17 11.43-2.88zm13.5-7.93c0-0.75-1.35-1.36-3-1.36s-3 1.47-3 3.28c0 1.8 1.35 2.42 3 1.36 1.65-1.05 3-2.53 3-3.28zm-288-4.79c0-1.52-2.03-2.77-4.5-2.77-2.48 0-4.5 2.05-4.5 4.55 0 2.77 1.76 3.85 4.5 2.77 2.47-0.98 4.5-3.03 4.5-4.55zm201 3.43c0-1.71-1.35-3.1-3-3.1s-3 1.39-3 3.1c0 1.7 1.35 3.09 3 3.09s3-1.39 3-3.09zm-219-4.91c0-2.7-1.6-4.35-3.56-3.68-5.57 1.92-6.49 8.59-1.19 8.59 2.61 0 4.75-2.21 4.75-4.91zm241.29-0.94c2.04-3.41-5.6-10.35-8.32-7.55-1.08 1.12-1.97 3.9-1.97 6.17 0 4.61 7.73 5.65 10.29 1.38zm34.71-7.91c0-2.46-1.26-5.27-2.79-6.25-3.57-2.28-7.16 3.53-4.71 7.61 2.76 4.61 7.5 3.75 7.5-1.36zm-268.38-1.94c3.23-5.4-0.45-6.54-4.56-1.42-2.37 2.95-2.59 4.72-0.6 4.72 1.75 0 4.08-1.48 5.16-3.3zm22.38-3.08c0-1.6-1.35-2.91-3-2.91s-3 2.17-3 4.83 1.35 3.97 3 2.91c1.65-1.05 3-3.22 3-4.83zm-265.5 207.77c1.019-1.71 4.137-3.08 6.927-3.05 4.372 0.04 4.451 0.46 0.573 3.05-5.875 3.92-9.847 3.92-7.5 0z"/>
      <path id="path14319" style="stroke:url(#linearGradient15795);fill:url(#linearGradient15803)" d="m403.4 792.92c-9.95-12.54-12.45-13.91-31.88-17.5-15.1-2.78-21.95-5.56-24.14-9.79-3.72-7.18-19.4-8.08-21.94-1.26-1.87 5.03-10.91 6.49-10.91 1.75 0-4.87-9.9-6.35-22.5-3.36-9.12 2.17-13.6 1.77-18.64-1.64-4.43-3-14.94-4.52-31.5-4.57-13.68-0.05-30.94-1.53-38.36-3.3-12.2-2.9-13.9-2.6-17.62 3.18-5.27 8.18-7.69 8.03-19.34-1.15-15.15-11.93-26.64-15.53-30.81-9.65-3.06 4.33-3.85 4.35-7.2 0.18-2.07-2.58-4.48-11.3-5.35-19.4-1.24-11.58-4.2-17.75-13.88-28.98-15.834-18.36-35.068-54.21-43.87-81.78-3.81-11.93-7.952-23.1-9.206-24.82-1.254-1.73-3.891-9.75-5.859-17.82-1.976-8.11-5.328-14.67-7.489-14.67-2.151 0-5.269-4.54-6.929-10.07-8.614-28.74-6.461-40.83 3.448-19.37 2.754 5.97 6.144 10.85 7.532 10.85 3.247 0 29.519-33.73 43.446-55.77 24.817-39.28 82.827-102.78 98.857-108.2 6.17-2.09 12.25-5.44 13.5-7.44s9.35-8.52 18.01-14.49c14.42-9.93 19.27-15.49 13.51-15.49-1.24 0-9.5 2.85-18.37 6.33-18.11 7.11-22.05 6.09-13.63-3.52 12.07-13.77 84.09-58.58 94.16-58.58 5.77 0 3.09 7.71-6.67 19.25-19.73 23.31-41.24 54.57-41.24 59.92 0 2.05-2.03 5.46-4.5 7.58-2.48 2.13-4.5 6.33-4.5 9.35 0 3.01-2.03 6.28-4.5 7.27-6.52 2.58-5.52 11.57 1.5 13.47 3.32 0.9 6 4.22 6 7.45 0 7.81-5.1 7.45-7.55-0.52-2.78-9.05-8.12-3.42-13.02 13.74-2.21 7.73-5.91 15.68-8.23 17.66-2.31 1.98-4.2 6.14-4.2 9.24s-1.35 6.49-3 7.55c-1.65 1.05-3 4.98-3 8.74s-2.53 13.99-5.62 22.73c-3.32 9.35-4.61 17.59-3.16 20.02 1.52 2.53 0.65 6.22-2.24 9.51-2.59 2.96-3.93 7.47-2.98 10.04 0.96 2.56 0.45 5.49-1.13 6.49-5.19 3.31-3 13.4 3.36 15.49 8.47 2.77 9.66 0.68 5.27-9.27-3.2-7.26-3.01-8.86 1.39-11.4 2.81-1.62 5.11-4.97 5.11-7.45 0-2.47 2.02-4.49 4.5-4.49 5.95 0 5.75 5.17-0.34 8.69-3.31 1.91-4.19 4.91-2.8 9.45 2.56 8.33 9.01 8.54 14.49 0.47 4.34-6.4 8.15-5.33 8.15 2.29 0 2.41-5.5 6.62-12.23 9.35l-12.23 4.96 7.73 4.18c10.28 5.56 9.79 10.18-1.07 10.18-6.16 0-9.37-1.85-10.7-6.19-1.23-3.99-4.54-6.2-9.3-6.2-8.46 0-12.49 7.35-7.46 13.62 2.62 3.25 2.34 4.67-1.16 6.06-2.52 1-4.58 4.74-4.58 8.31s-1.41 9.22-3.14 12.55-2.28 7.49-1.23 9.24c2.8 4.69 10.4-2.73 8.37-8.18-2-5.38 2.46-5.81 7.4-0.7 4.79 4.94 4.55 13.63-0.67 23.68-2.34 4.53-5 10.67-5.9 13.65s-3.03 5.42-4.74 5.42c-3.99 0-3.99-7.12 0.01-11.25 3.97-4.11 0.54-13.53-4.92-13.53-2.3 0-4.18 2.7-4.18 6.01s-1.15 6.75-2.56 7.65c-1.42 0.9-5.63 10.39-9.38 21.09-3.74 10.71-10.35 25.04-14.68 31.86-16.52 25.98-16.98 27.95-9.03 38.38 3.93 5.16 11.87 10.82 17.65 12.59 13.65 4.18 15 4.08 15-1.07 0-2.37 2.12-5.16 4.71-6.18 2.83-1.12 4.32-4.66 3.74-8.85-0.75-5.4-2.66-6.79-8.4-6.13-5.56 0.65-6.56-0.02-4-2.67 5.97-6.16 20.29 0.92 21.4 10.57 0.54 4.76 2.82 8.28 5.34 8.28 6.85 0 8.48-8.9 2.82-15.36-4.84-5.52-4.78-6.02 1.14-9.29 5.12-2.83 6.25-2.56 6.25 1.49 0 2.77 1.43 4.02 3.26 2.86 2.35-1.5 2.35-3.03 0-5.45-5.37-5.55-3.7-10.39 3.49-10.12 5.53 0.2 6.78-1.46 6.94-9.2 0.11-5.19 1.14-11.01 2.3-12.94 1.21-2.03-0.45-4.34-3.95-5.49-7-2.29-8.21-10.86-1.54-10.86 2.47 0 4.5-1.22 4.5-2.72 0-5.31-8.81-10.15-14.86-8.17-6.51 2.14-8.79-3.09-2.39-5.48 2.98-1.12 2.96-2.78-0.1-8.13-4.26-7.45-2.6-12.67 4.03-12.67 2.55 0 4.32 3.01 4.32 7.36 0 8.71 8.32 17.38 11.52 12.02 1.14-1.9 4.75-3.2 8.02-2.9 3.54 0.33 5.96-1.34 5.96-4.09 0-2.66-2.19-4.27-5.12-3.77-2.82 0.48-7.34-2.64-10.09-6.97-2.88-4.55-7.82-7.85-11.72-7.85-5.48 0-6.48-1.38-5.37-7.38 0.75-4.06-0.11-8.33-1.92-9.48-4.8-3.06-4-7.93 1.29-7.93 2.52 0 5.81 3.35 7.32 7.45 3.87 10.52 7.52 11.9 13.48 5.09 3.29-3.75 4.45-8.23 3.2-12.32-1.22-3.97-0.65-6.41 1.51-6.41 1.91 0 4.19 2.78 5.05 6.19s2.59 6.2 3.84 6.2c2.89 0 1.82-24.49-1.4-32.07-1.57-3.68-1.09-6.6 1.34-8.15 2.08-1.33 4.06-8.23 4.39-15.34 0.61-12.91-2.13-18.74-5.86-12.5-1.22 2.04-4.75 0.21-9.21-4.76-8.59-9.57-8.6-9.63-2.3-12.12 2.77-1.1 7.36 0.3 10.44 3.18 4.99 4.66 5.68 4.69 7.33 0.23 1.01-2.71 0.92-6.45-0.19-8.31-1.12-1.86-0.4-5.4 1.59-7.87 1.98-2.48 2.85-7.48 1.93-11.12s0.04-8.39 2.15-10.56c2.18-2.26 3.57-10.02 3.24-18.17-0.36-8.84 0.97-15.54 3.5-17.71 2.25-1.93 4.08-6.73 4.08-10.68s1.35-8.05 3-9.1 3-5.32 3-9.48 1.32-7.56 2.94-7.56 3.79-3.49 4.83-7.75c1.03-4.26 3.08-7.74 4.55-7.74 1.48 0 2.68-2.83 2.68-6.29 0-3.47 2.13-7.14 4.73-8.17s6-4.82 7.54-8.43c1.55-3.6 5.48-10.73 8.74-15.84s6.81-11.38 7.89-13.94 4.81-7.11 8.28-10.11c6.09-5.26 6.12-5.62 0.81-9.83-5.96-4.73-5.81-14.38 0.26-16.47 2.35-0.81 3.75 1.69 3.75 6.72 0 4.4 1.01 8.01 2.25 8.02 1.24 0.02 8.32-6.75 15.75-15.03 7.42-8.28 18.12-16.66 23.76-18.63 12.77-4.46 107.15-11.47 117.67-8.74 5.46 1.42 11.14 8.06 19.4 22.72 6.42 11.39 11.14 22.22 10.49 24.06s-1 6.48-0.78 10.32c0.24 4.29-1.32 6.97-4.07 6.97-2.46 0-4.56-2.44-4.66-5.42-0.14-4.12-0.85-3.73-2.93 1.62-2.41 6.2-3.48 6.57-8.9 3.1-5.12-3.28-6.65-3.16-9.03 0.7-3.77 6.12-3.68 9.29 0.25 9.29 1.77 0 0.32 4.19-3.2 9.3-3.53 5.11-8.68 9.25-11.45 9.2-3.83-0.08-2.97-1.99 3.55-7.91 4.72-4.29 7.77-8.66 6.76-9.7-3.04-3.14-23.58 5.22-36.36 14.79-6.6 4.94-17.74 12.08-24.75 15.86s-12.75 8.6-12.75 10.7-2.7 4.7-6 5.79c-3.3 1.08-6 3.93-6 6.33s-3.38 6.65-7.5 9.44c-4.13 2.79-7.5 7.56-7.5 10.59s-2.03 6.31-4.5 7.29c-7.19 2.85-5.21 11.15 3.49 14.56 5.6 2.2 7.04 4.11 4.82 6.41-2.22 2.29-5.07 2.21-9.55-0.26-7.57-4.18-12.26-1.94-12.26 5.85 0 3.1-2.03 7.37-4.5 9.5-2.48 2.12-4.5 7.17-4.5 11.22s-1.35 7.37-3 7.37c-9.87 0 10.55 29.13 20.56 29.33 7.58 0.15 7.87 2.25 2.06 14.9-4.9 10.66-6.34 11.63-16.1 10.84-10.53-0.84-10.77-0.6-13.12 13.09-2.51 14.67-2.83 14.07 14.05 26.61 5.05 3.74 5.39 5.36 2.25 10.55-5.16 8.54-4.64 11.68 2.3 13.96 3.3 1.08 6 3.96 6 6.4 0 5.28-3.53 5.75-8.06 1.07-4.05-4.18-5.81-1.37-8.53 13.62-2.12 11.66-2.07 11.73 6.48 9.84l8.61-1.91-8.25 7.29c-4.54 4.01-8.25 8.98-8.25 11.05 0 8.34-4.96 2.99-7.95-8.58-2.52-9.74-2.29-13.66 1.05-18.6 5.99-8.83 1.84-14.28-5.58-7.34-3.62 3.38-5.29 7.88-4.33 11.66 0.86 3.39 0.23 7.82-1.4 9.84-3.21 4 2.14 19.88 6.69 19.88 1.39 0 2.52 1.31 2.52 2.92 0 1.62-5.71 2.24-12.75 1.4-12.26-1.47-12.5-1.34-6.13 3.36 7.46 5.49 6.19 14-2.07 14-2.93 0-6.65 1.75-8.28 3.88-3.57 4.65-7.15 19.8-6.97 29.43 0.07 3.83-1.2 6.97-2.83 6.97-1.64 0-2.97 2.09-2.97 4.65 0 2.55 2.17 4.64 4.82 4.64 3.11 0 4.19-1.69 3.05-4.76-2.24-6.03 6.28-9.74 11.06-4.81 4.19 4.33-0.9 8.72-13.39 11.53-6.13 1.39-8.26 4.03-9.29 11.54-0.74 5.36-2.3 12.02-3.48 14.8-1.72 4.07 0.11 5.37 9.29 6.64 9.45 1.3 12.5 0.29 17.55-5.84 8.42-10.2 13.98-9.67 11.7 1.11-1.38 6.56-1.06 7.45 1.4 3.87 5.68-8.26 3.96-20.78-3.13-22.69-5.49-1.49-6.17-3.33-4.7-12.7 0.95-6.03 0.46-11.77-1.08-12.75-1.54-0.99-2.8-3.76-2.8-6.16 0-5.3 8.82-2.75 14.18 4.11 2.95 3.78 2.74 5.4-1.11 8.31-4.15 3.13-4.24 4.59-0.68 10.99 2.26 4.06 6.81 9.83 10.11 12.84 6.35 5.77 16.5 7.56 16.5 2.9 0-5.24 8.27-6.03 16.57-1.58 4.58 2.45 8.46 4.08 8.63 3.62 0.16-0.45 1.99-3.95 4.05-7.76s3.75-10.35 3.75-14.53 1.16-8.34 2.57-9.25c1.42-0.9 3.4-8.81 4.4-17.57 1.37-11.97 0.54-18.36-3.32-25.65-7.62-14.38-9.05-24.66-4-28.65 5.94-4.68 6.69-13.03 5.14-57.42-0.16-4.51-2.63-10.87-5.5-14.14-3.92-4.48-4.36-6.83-1.77-9.5 1.9-1.96 3.89-6.75 4.42-10.65 0.54-3.9 1.33-9.83 1.77-13.17 0.5-3.87-1.26-6.51-4.86-7.28-4.8-1.02-5.34 0.08-3.59 7.26 1.55 6.41 0.44 10.23-4.63 15.8-8.16 8.97-14.63 9.47-14.63 1.14 0-3.41 1.35-6.19 3-6.19s3-1.48 3-3.28c0-1.81-1.49-2.34-3.3-1.18-2.39 1.52-2.4 0.51-0.05-3.69 6.49-11.57 14.52-19.2 21.3-20.23 3.82-0.58 7.88-3.15 9.03-5.7 1.15-2.56 3.63-7.73 5.5-11.5 1.88-3.77 2.68-8.85 1.77-11.3-0.91-2.46-0.22-5.38 1.55-6.51 1.76-1.12 3.2-5.13 3.2-8.9s4.18-12.09 9.29-18.49c9.91-12.42 9.83-20.76-0.2-20.76-3.41 0-6.09-2.04-6.09-4.65 0-5.99 7.18-5.99 12 0 5.6 6.98 13.03 5.94 11.13-1.55-1.25-4.93-0.09-6.19 5.69-6.19 4.98 0 9.14-3.17 13.21-10.07 3.27-5.54 6.1-9.37 6.28-8.52 0.19 0.85 0.62 12.7 0.95 26.33 0.69 27.88 6.38 42.7 25.58 66.61 6.15 7.67 14.73 19.75 19.05 26.85 4.32 7.09 10.87 15.08 14.55 17.74 3.69 2.66 5.66 5.92 4.38 7.23-1.27 1.32-4.04-0.04-6.15-3.02-6.28-8.88-7.67-6.41-7.67 13.65 0 18.95 0.04 19.03 6.07 13.39 4.58-4.28 6.92-4.79 9.53-2.1 2.61 2.7 2.13 5.09-1.97 9.77-2.99 3.41-6.61 5.44-8.05 4.52-4.36-2.78-6.77 8.44-3.12 14.48 2.22 3.66 2.37 6.31 0.43 7.55-5.62 3.59-10.81 21.62-9.79 34.01 0.78 9.5-0.57 14.21-5.79 20.18-9.68 11.08-51.44 46.07-73.62 61.69-10.34 7.29-20.17 15.9-21.85 19.14-2.14 4.12-6.31 5.88-13.95 5.88-5.99 0-9.87 1.05-8.62 2.32 1.24 1.28 5.86 2.33 10.25 2.33 6.29 0 8.16 1.64 8.82 7.74 1.75 16.13 3.96 21.62 14.36 35.7 13.75 18.59 11.41 21.65-2.83 3.7zm-222.37-61.3c0-2.39-2.36-4.82-5.25-5.39-5.17-1.03-7.31 5.54-3.19 9.8 3.15 3.25 8.44 0.48 8.44-4.41zm130.5-99.29c0-1.71-1.35-2.24-3-1.19-1.65 1.06-3 3.31-3 5.02 0 1.7 1.35 2.23 3 1.18s3-3.31 3-5.01zm-81-30.62c0-1.7-2.7-3.1-6-3.1s-6 1.4-6 3.1 2.7 3.1 6 3.1 6-1.4 6-3.1zm87-6.2c0-1.7-1.35-3.09-3-3.09s-3 1.39-3 3.09c0 1.71 1.35 3.1 3 3.1s3-1.39 3-3.1zm21.07-14.14c4.13-11.2 3.66-14.34-1.96-13.19-3.11 0.63-5.17 4.67-5.65 11.07-0.91 12.02 3.51 13.26 7.61 2.12zm-12.07-20.12c0-1.6-2.03-2.91-4.5-2.91-4.64 0-5.96 3.65-2.58 7.14 2.39 2.48 7.08-0.32 7.08-4.23zm0-23.05c0-2.56-1.27-4.65-2.82-4.65-3.79 0-6.5 4.84-4.1 7.31 3.38 3.49 6.92 2.13 6.92-2.66zm24-26.34c-3.76-7.24-7.7-7.98-9.97-1.85-2.03 5.47 0.4 8.05 7.58 8.05 4.67 0 5.07-1.03 2.39-6.2zm-9.75-13.17c-0.69-2.13-3.05-3.87-5.25-3.87s-4.56 1.74-5.25 3.87c-0.74 2.31 1.38 3.88 5.25 3.88s5.99-1.57 5.25-3.88zm-221.25-32.51c0-3.78-0.84-3.93-4.5-0.79-2.48 2.12-4.5 5.95-4.5 8.5 0 3.78 0.84 3.93 4.5 0.79 2.47-2.12 4.5-5.94 4.5-8.5zm58.59 312.3c-4.42-8.81-1.42-16.9 3.24-8.74 1.23 2.16 4.18 7.06 6.55 10.89 3.82 6.18 3.76 6.97-0.46 6.97-2.62 0-6.82-4.1-9.33-9.12zm445.12-42.79c-4.28-2.97-28.02-25.38-52.75-49.8l-44.96-44.4 0.88-17.57c0.49-9.66 2.22-23.14 3.86-29.96 2.32-9.71 2-13.91-1.51-19.45-5.07-7.98-3.37-13.08 4.35-13.08 2.87 0 6.5-1.29 8.07-2.87 1.57-1.59 10.17-5.84 19.12-9.47 15.96-6.45 29.6-15.97 51.89-36.21 18.37-16.68 71.06-41.46 87.56-41.19 3.45 0.06 9.36 2.75 13.12 5.99 6.39 5.5 6.62 6.89 3.46 20.81-1.86 8.21-11.33 31.65-21.06 52.1-20.81 43.74-23.03 54.08-24.04 111.54-0.89 51.2-2.85 60.48-15.02 71.06-10.64 9.25-22 10.11-32.97 2.5zm-61.21-168.06c4.95-3.39 7.51-6.16 5.7-6.18-6.34-0.04-22.2 6.81-22.2 9.58 0 4.58 6.91 3.16 16.5-3.4zm-268.5 162.84c0-2.66 1.35-4.83 3-4.83s3 1.31 3 2.91c0 1.61-1.35 3.78-3 4.83-1.65 1.06-3-0.25-3-2.91zm42.22-9.2c-2.51-3.13-2.58-4.97-0.23-6.47 3.48-2.22 12.01 3.55 12.01 8.12 0 4.28-7.9 3.17-11.78-1.65zm-186.22-1.64c0-5.37 5.28-6.37 9.03-1.7 3.08 3.84 2.64 4.61-2.66 4.61-3.51 0-6.37-1.31-6.37-2.91zm192-19.95c0-3.47 2.54-4.95 8.25-4.78 4.7 0.14 6.31 0.99 3.75 1.97-2.48 0.94-6.19 3.09-8.25 4.78-2.68 2.18-3.75 1.62-3.75-1.97zm-18-11.04c0-1.8 1.35-3.28 3-3.28s3 0.62 3 1.37-1.35 2.23-3 3.28-3 0.44-3-1.37zm-148.58-3.14c0.97-1.63 3.75-2.18 6.18-1.22 6.2 2.46 5.47 4.18-1.78 4.18-3.39 0-5.38-1.33-4.4-2.96zm130.58-0.14c0-1.7 0.59-3.1 1.32-3.1s2.16 1.4 3.18 3.1c1.02 1.71 0.42 3.1-1.32 3.1-1.75 0-3.18-1.39-3.18-3.1zm-150-6.19c0-1.71 1.35-3.1 3-3.1s3 1.39 3 3.1c0 1.7-1.35 3.09-3 3.09s-3-1.39-3-3.09zm14.16-8.03c-4.59-2.56-7.5-6.06-6.48-7.76 1.18-1.97 3.57-1.64 6.55 0.92 2.58 2.21 7.33 3.56 10.56 2.99 3.7-0.64 5.4 0.43 4.6 2.91-1.89 5.87-5.96 6.12-15.23 0.94zm176.32-13.7c-1.07-1.78 1.99-7.03 6.8-11.67 4.8-4.63 9.44-10.52 10.31-13.08 0.88-2.55 2.5-3.78 3.61-2.72 3.09 2.93-4.61 18.21-9.18 18.21-2.21 0-4.02 2.01-4.02 4.47 0 5.77-5.02 8.97-7.52 4.79zm-162.79-3.64c1.85-5.75 8.31-6.7 8.31-1.23 0 2.7-2.14 4.91-4.75 4.91s-4.22-1.66-3.56-3.68zm-13.77-4.67c-3.38-3.49-2.06-7.14 2.58-7.14 2.47 0 4.5 1.31 4.5 2.91 0 3.91-4.69 6.71-7.08 4.23zm340.08-23.55c0-5.54 8.36-13.17 11.22-10.22 2.5 2.58-2.75 11.84-7.68 13.53-1.95 0.67-3.54-0.82-3.54-3.31zm-147-54.85c0-1.71 1.35-3.1 3-3.1s3 1.39 3 3.1c0 1.7-1.35 3.1-3 3.1s-3-1.4-3-3.1zm-21-19.81c0-5.46 7.55-6.82 10.5-1.88 1.02 1.7 1.21 3.1 0.42 3.1s-3.57 0.85-6.17 1.88c-3.12 1.23-4.75 0.17-4.75-3.1zm13.5-63.84c-1.02-1.71-0.42-3.1 1.32-3.1 1.75 0 3.18 1.39 3.18 3.1 0 1.7-0.6 3.09-1.32 3.09-0.73 0-2.16-1.39-3.18-3.09zm-139.5-3.1c0-1.71 1.35-3.1 3-3.1s3 1.39 3 3.1c0 1.7-1.35 3.1-3 3.1s-3-1.4-3-3.1zm150.78-8.32c-2.04-4.55-3.09-8.92-2.32-9.71 2.65-2.74 10.54 6.41 10.54 12.21 0 8.32-3.89 7.14-8.22-2.5zm-140.4-7.38c-1.09-1.82-1.26-4.05-0.38-4.96 2.15-2.22 8 1.69 8 5.35 0 3.96-5.18 3.7-7.62-0.39zm-2.72-23.72c-1.2-3.23-0.14-6.74 2.68-8.86 2.56-1.94 4.7-6.86 4.75-10.93 0.09-6.92 0.31-7.02 3.42-1.48 2.44 4.34 2.43 7.4-0.04 11.49-1.86 3.07-2.58 7.72-1.6 10.35 1.11 2.99 0.09 4.77-2.73 4.77-2.47 0-5.39-2.41-6.48-5.34zm172.34-5.51c0-2.55 1.35-4.64 3-4.64s3 2.09 3 4.64c0 2.56-1.35 4.65-3 4.65s-3-2.09-3-4.65zm-22.5-20.13c-1.02-1.71 0.25-3.1 2.82-3.1s4.68 1.39 4.68 3.1c0 1.7-1.27 3.09-2.82 3.09-1.56 0-3.66-1.39-4.68-3.09zm14.25-14.52c-5.27-2.1-4.68-7.17 0.84-7.17 2.53 0 5.38-2.09 6.32-4.65 1.87-5.01 7.09-6.41 7.09-1.89 0 5.13-10.48 15.22-14.25 13.71zm-142.93-12.07c-2.88-7.76-2.16-10.59 2.68-10.59 2.8 0 4.5 2.92 4.5 7.74 0 8.66-4.38 10.39-7.18 2.85zm207.27-3.56c-4.31-4.45-6.2-4.71-11.14-1.52-7.85 5.06-7.64 0.12 0.32-7.32 6.08-5.67 6.4-5.68 10.3-0.17 4.67 6.61 11.13 3.96 9.82-4.02-0.93-5.68 5.43-15.69 9.98-15.69 1.44 0 2.63 3.49 2.63 7.75 0 9.07 2.01 9.62 9.53 2.6 3.03-2.83 6.46-4.17 7.62-2.97 2.73 2.82-23.22 26.39-29.26 26.57-2.53 0.07-6.94-2.28-9.8-5.23zm-197.09-14.6c0-2.45 1.35-5.32 3-6.37 1.65-1.06 3 0.95 3 4.46s-1.35 6.38-3 6.38-3-2.01-3-4.47zm7.91-15.67c0.95-2.56 2.94-4.65 4.41-4.65s2.68 2.09 2.68 4.65-1.98 4.65-4.41 4.65c-2.68 0-3.73-1.82-2.68-4.65zm236.59 1.55c1.02-1.7 3.12-3.1 4.68-3.1 1.55 0 2.82 1.4 2.82 3.1s-2.11 3.1-4.68 3.1-3.84-1.4-2.82-3.1zm-16.5-6.2c3.17-6.12 9-8.52 9-3.71 0 3.25-6.52 9.91-9.71 9.91-1.37 0-1.06-2.79 0.71-6.2zm-209.9-13.16c0.16-6.11 11.4-18.5 14.82-16.32 4.71 3 3.67 7.8-1.7 7.8-2.63 0-5.49 2.78-6.35 6.19-1.72 6.77-6.93 8.56-6.77 2.33zm270.04-7.13c6.53-7.18 7.36-7.39 9.14-2.32 2.73 7.73 0.66 10.22-8.48 10.22h-7.85l7.19-7.9zm21.6 0.06c1.24-1.36 5.79-2.87 10.13-3.34 10.12-1.12 28.13-9.92 28.13-13.75 0-1.62 2.56-2.95 5.68-2.95 6.89 0 9.22-5.36 7.15-16.51-1.25-6.79-0.63-8 3.34-6.43 2.68 1.06 5.72 5.39 6.75 9.61 2.53 10.44-6.68 22.57-21.05 27.71-13.86 4.95-43.24 9.1-40.13 5.66zm-3.74-22.96c0-1.8 1.35-3.28 3-3.28s3 0.61 3 1.37c0 0.75-1.35 2.22-3 3.28-1.65 1.05-3 0.44-3-1.37zm-46.5-6.38c1.02-1.7 3.2-3.1 4.85-3.1s2.17 1.4 1.15 3.1c-1.02 1.71-3.2 3.1-4.85 3.1s-2.17-1.39-1.15-3.1zm59-3.1c1.51-4.67 6.33-5.16 7.75-0.77 0.69 2.13-1 3.87-3.75 3.87s-4.55-1.39-4-3.1zm14.96-0.97c-2.62-3.26-1.71-5.84 3.99-11.37l7.37-7.15 3.17 8.63c3.59 9.75 3.73 9.39-4.82 12.1-3.8 1.2-7.67 0.32-9.71-2.21zm-52.96-2.12c-1.02-1.71-0.42-3.1 1.32-3.1 1.75 0 3.18 1.39 3.18 3.1 0 1.7-0.6 3.09-1.32 3.09-0.73 0-2.16-1.39-3.18-3.09z"/>
      <path id="path14317" style="stroke:url(#linearGradient15795);fill:url(#linearGradient15803)" d="m364.47 772.25c-11.24-2.3-17.76-7.97-15.96-13.88 1.23-4.01 30.82-12.18 36.29-10.01 3.14 1.24 4.17 5.26 3.46 13.53-1.12 13.11-4.04 14.39-23.79 10.36zm-52.62-12.17c-4.01-3.19-6.25-7.26-5.07-9.23 3.03-5.08 7.75-4.33 7.75 1.22 0 2.61 2.02 5.55 4.5 6.53 4.6 1.82 6.32 7.37 2.25 7.25-1.24-0.04-5.48-2.64-9.43-5.77zm-37.82-0.36c-1.02-1.7-10.63-3.1-21.35-3.1-10.73 0-28.97-1.52-40.55-3.37-18.09-2.9-21.78-2.68-26.31 1.55-6.8 6.36-10.24 6.2-16.33-0.75-2.73-3.12-11.8-8.97-20.16-13.02-12.04-5.82-15.7-6.51-17.62-3.29-2.79 4.65-4.52 2.31-7.36-9.92-3.06-13.21 0.75-16.12 9.76-7.47 9.95 9.55 43.83 21.18 48.3 16.57 1.71-1.77 3.12-4.89 3.12-6.92s2.02-4.5 4.5-5.48c2.47-0.98 4.5-4.4 4.5-7.6s2.7-8.34 6-11.42 6-7.31 6-9.39c0-2.09 2.02-5.53 4.5-7.65 2.47-2.12 4.55-7.52 4.61-12 0.05-4.47 2.03-11.62 4.39-15.88 5.78-10.45 5.78-18.91 0-16.61-2.48 0.98-4.5 0.24-4.5-1.65s1.7-3.43 3.78-3.43c5.49 0 12.6-12.48 13.23-23.24 1.06-17.85 3.78-71.48 5.03-99.14 0.69-15.34 1.63-28.58 2.08-29.43 0.45-0.86 1.22-5.04 1.72-9.3 2.37-20.18 6.86-42.7 10.21-51.12 2.03-5.11 4.74-12.08 6.02-15.49 7.19-19.22 14.16-32.99 25.13-49.73 16.07-24.51 19.43-29.93 21.84-35.23 1.1-2.43 4.13-6.71 6.73-9.51s11.48-12.78 19.73-22.19 17.94-18.72 21.53-20.7c9.75-5.36 61.24-10.25 96.73-9.19l31.26 0.93 11.28 18.59c6.2 10.23 11.37 20.02 11.49 21.76 0.11 1.74-4.85 5.73-11.04 8.86s-13.28 6.94-15.75 8.46c-2.48 1.52-11.25 6.34-19.5 10.71-21.98 11.63-27.84 15.25-33.97 20.97-3.02 2.83-6.82 5.15-8.43 5.15s-8.09 4.88-14.39 10.84c-6.31 5.97-12.64 10.85-14.09 10.85-1.44 0-2.62 1.39-2.62 3.1 0 1.7-3.04 6.22-6.75 10.04-9.37 9.64-20.25 26.59-20.25 31.54 0 2.27-2.03 5.87-4.5 7.99-2.48 2.12-4.5 6.3-4.5 9.29s-2.03 7.17-4.5 9.3c-2.48 2.12-4.5 6.39-4.5 9.49s-1.35 6.49-3 7.55c-1.65 1.05-3 4.87-3 8.48 0 5.92-2.98 17.53-8.97 34.89-7.33 21.28-8.07 25.77-5.14 31.19 2.18 4.02 2.06 6.01-0.41 6.86-6.08 2.09-4.09 16.58 2.52 18.37 6.06 1.64 8.45 7.09 3.12 7.09-6.01 0-15.22 14.02-15.19 23.11 0.04 13.92-1.22 24.51-3.36 28.02-1.04 1.7-2.85 11.81-4.02 22.46-1.18 10.66-3.23 20.07-4.56 20.92-1.34 0.85-3.36 8.51-4.49 17.03s-3.17 16.19-4.52 17.05c-1.35 0.87-3.33 7.49-4.39 14.72-1.06 7.24-3.48 16.38-5.37 20.33-3.93 8.19 0.33 12.83 11.85 12.92 8.16 0.05 11.54 4.94 5.17 7.46-7.3 2.9-18.68 2.22-20.74-1.22zm52.5-11.85c0-7.14 4.63-11.53 7.36-6.97 1.08 1.8 7.07 0.95 15.18-2.15 10.38-3.97 14.2-4.3 16.98-1.42 5.26 5.44 0.17 8.83-6.66 4.43-5.08-3.28-5.86-2.96-5.86 2.44 0 4.38-2 6.24-6.75 6.27-3.71 0.02-9.79 0.88-13.5 1.91-5.4 1.49-6.75 0.59-6.75-4.51zm300.21-11.74c-5.12-2.22-29.32-24.31-53.79-49.1l-44.49-45.07 1.59-19.35c0.88-10.64 1.63-27.86 1.67-38.26 0.07-20.43-0.44-19.76 22.81-30.54 22.96-10.66 30.45-15.54 48.61-31.64 22.02-19.54 66.94-43.45 86.93-46.28 11.5-1.63 15.05-0.88 20.45 4.31 5.32 5.12 5.92 7.45 3.27 12.57-1.79 3.46-3.26 9.58-3.26 13.6 0 4.03-6.09 19.8-13.53 35.06-25.67 52.67-27.34 61.64-28.84 154.78-0.25 16.07-3.4 26.28-10.28 33.38-9.38 9.69-19.16 11.74-31.14 6.54zm35.79-44.39c0-3.31-1.35-6.87-3-7.93-1.7-1.08-3 1.52-3 6.02 0 4.36 1.35 7.93 3 7.93s3-2.71 3-6.02zm-72-9.48c-5.88-3.92-9.85-3.92-7.5 0 1.02 1.71 4.14 3.08 6.93 3.05 4.37-0.04 4.45-0.46 0.57-3.05zm-43.18-48.27c-1-2.7-1.82-5.57-1.82-6.38s-1.35-0.62-3 0.44c-4.78 3.05-3.47 10.84 1.82 10.84 3.16 0 4.2-1.69 3-4.9zm4.2-51.83c0-2.03 7.42-8.57 16.48-14.53 14.14-9.31 20.17-15.49 15.11-15.49-2.92 0-36.22 13.26-38.4 15.29-3.12 2.92 0.86 22.21 4.15 20.11 1.45-0.93 2.65-3.35 2.66-5.38zm92.69-14.53c3.19 0 7.93-0.85 10.54-1.88 10.89-4.32 3.12-5.77-22.99-4.32l-27.76 1.55-0.91 11.24-0.91 11.23 18.12-8.91c9.96-4.9 20.72-8.91 23.91-8.91zm-266.71 165.94c0-2.46 1.35-5.33 3-6.38 1.65-1.06 3-5.74 3-10.41s1.37-9.91 3.05-11.64 3.51-12.5 4.07-23.93c0.56-11.42 1.85-21.63 2.87-22.69 1.02-1.05-0.38-5.81-3.1-10.57-4.03-7.05-4.25-9.53-1.16-13.37 2.08-2.59 2.82-6.34 1.63-8.32s-2.6-16.81-3.14-32.97c-0.53-16.15-2.35-31.08-4.03-33.16-1.92-2.4-2-4.88-0.2-6.75 1.57-1.62 3.31-10.89 3.85-20.6 0.55-9.71 1.94-18.62 3.08-19.8s2.08-5.32 2.08-9.2c0-3.87 1.35-7.9 3-8.96 1.65-1.05 3-5.23 3-9.29s1.35-8.24 3-9.3c1.65-1.05 3-4.84 3-8.41s3.37-11.06 7.5-16.65c4.12-5.58 7.54-11.29 7.59-12.68 0.23-5.92 25.11-28.87 31.3-28.87 0.89 0 1.61 8.02 1.61 17.82 0 21.52 10.65 45.68 32.23 73.16l14.27 18.17 0.46 38.19c0.26 21.01 1.2 39.42 2.1 40.92s-0.32 6.62-2.71 11.38-4.35 15.5-4.35 23.87c0 13.8-1.19 16.44-12.78 28.3-7.03 7.2-26.95 23.8-44.25 36.88-17.31 13.09-35.03 27.38-39.37 31.76-8.59 8.65-20.6 10.69-20.6 3.5zm111-134.96c0-5.96-1.53-9.29-4.25-9.29-7.46 0-13.75 3.62-13.75 7.92 0 2.29-2.36 5.58-5.25 7.32-4.1 2.47-2.14 3.18 9 3.25 13.85 0.09 14.25-0.16 14.25-9.2zm-370.69 105.95c-13.84-9.89-42.598-60.36-51.833-90.96-3.261-10.8-8.068-23.82-10.684-28.93s-4.765-13.83-4.775-19.36c-0.014-7.93-1.268-10.07-5.903-10.07-4.344 0-6.745-3.31-9.175-12.63-4.406-16.89-2.118-22.31 4.153-9.83 2.783 5.53 6.164 10.06 7.513 10.06 3.082 0 34.21-40.44 44.89-58.32 4.402-7.37 15.844-22.71 25.424-34.08s21.73-26.56 27-33.75c12.64-17.25 16.76-17.06 14.82 0.68-0.84 7.66-0.7 13.94 0.29 13.94 3.15 0 10.08-16.55 12.34-29.43 2.96-16.91 5.34-19.14 28.23-26.45 17.19-5.48 21.26-8.29 29.88-20.54 15.87-22.54 15.63-23.92-2.86-16.66-32.73 12.84-28.91 3.98 9.11-21.16 49.42-32.67 72.77-40.59 52.24-17.73-13.88 15.47-29.01 38.36-53.02 80.24-3.05 5.32-6.03 12.3-6.63 15.52s-2.25 7.46-3.67 9.42c-1.41 1.95-4.39 9.5-6.6 16.76-2.22 7.27-5.84 14.76-8.04 16.65-2.21 1.89-4.01 6.51-4.01 10.28s-1.01 7.9-2.25 9.17c-2.77 2.87-9.06 28.12-13.19 52.93-1.7 10.23-4.32 19.92-5.82 21.54-1.51 1.61-2.74 6.76-2.74 11.43s-1.46 9.42-3.24 10.56c-1.79 1.14-2.46 5.32-1.49 9.29 0.96 3.97 0.52 8-0.98 8.96s-3.7 9.01-4.88 17.88c-1.18 8.88-3.54 18.98-5.25 22.46-6.88 14.03-8.16 17.22-8.16 20.31 0 5.76-30.3 66.36-36.26 72.51-0.78 0.8-2.77 0.49-4.43-0.69zm1.21-231.57c4.44-10.06 4.38-10.7-0.91-10.7-5.18 0-11.69 11.18-9.07 15.56 3.02 5.05 6.31 3.45 9.98-4.86zm192.48 169.18c0-1.6 1.35-3.78 3-4.83s3 0.26 3 2.92c0 2.65-1.35 4.83-3 4.83s-3-1.32-3-2.92zm-132-32.33c0-2.35 2.28-6.19 5.06-8.52 4.46-3.75 4.82-3.58 3 1.42-1.13 3.12-2.06 6.95-2.06 8.52 0 1.56-1.35 2.84-3 2.84s-3-1.92-3-4.26zm330.56-39.31c0.72-2.23 3.09-4.67 5.25-5.42 2.25-0.77 3.38 0.39 2.63 2.71-0.72 2.24-3.09 4.68-5.25 5.43-2.25 0.77-3.38-0.39-2.63-2.72zm-149.06-24.59c-1.02-1.7-0.42-3.1 1.32-3.1 1.75 0 3.18 1.4 3.18 3.1 0 1.71-0.6 3.1-1.32 3.1-0.73 0-2.16-1.39-3.18-3.1zm100.5-159.3c0-2.7 2.14-4.9 4.75-4.9s4.22 1.65 3.56 3.68c-1.85 5.74-8.31 6.69-8.31 1.22zm141-63.84c0-1.74 3.37-4.75 7.5-6.69 5.44-2.56 7.5-5.95 7.5-12.33 0-9.5 4.23-11.82 7.17-3.92 2.28 6.15-2.27 15.09-10.86 21.3-7.71 5.58-11.31 6.1-11.31 1.64z"/>
      <path id="path14315" style="stroke:url(#linearGradient15795);fill:url(#linearGradient15803)" d="m359.75 769.39c-16.31-4.7-8.84-14.77 13.31-17.9 14.13-2 14.38-1.89 12.48 5.42-1.06 4.1-1.95 9.2-1.97 11.33-0.04 4.13-11.57 4.69-23.82 1.15zm-85.89-11.73c-3.54-2.67-14.58-4.16-31.15-4.21-14.13-0.04-31.6-1.49-38.83-3.21-11.09-2.64-14.05-2.28-18.92 2.27-4.66 4.35-6.77 4.68-10.86 1.69-2.79-2.04-10.04-6.49-16.12-9.9-20.47-11.45-17.44-16.09 5.05-7.73 16.47 6.13 19.21 5.74 22.5-3.19 1.57-4.26 4.14-7.74 5.72-7.74s3.77-2.92 4.87-6.49 5.91-12.48 10.7-19.81 8.71-14.75 8.71-16.49c0-1.75 2.84-9.91 6.3-18.14 8.84-21 15.33-56.57 16.3-89.33 1.8-60.53 4.66-101.61 7.46-107.01 1.62-3.12 2.96-10.29 2.98-15.94 0.08-16.96 18.07-63.68 31.56-81.95 4.07-5.51 7.4-10.69 7.4-11.5 0-2.79 20.88-34.53 30.7-46.67 21.45-26.51 31.71-36.17 41.53-39.13 13.2-3.98 103.24-10.24 112.55-7.83 6.96 1.8 28.22 31.78 28.22 39.78 0 2.11-6.41 7.01-14.25 10.89-24.43 12.1-58.89 31.74-63.92 36.44-2.64 2.47-5.91 4.49-7.26 4.49-5.05 0-31.25 23.89-41.35 37.71-2.9 3.97-8.64 11.6-12.75 16.96s-7.47 10.91-7.47 12.35c0 2.49-11.08 27.6-19.85 45-2.28 4.52-4.15 11.06-4.15 14.53s-1.35 7.17-3 8.22c-1.65 1.06-3 4.64-3 7.97s-1.32 8.48-2.93 11.44c-2.92 5.39-10.64 50.36-13.72 80.02-2.33 22.33-11.89 73.82-17.8 95.76-2.75 10.23-6.77 26.49-8.94 36.14s-4.68 18.78-5.58 20.29c-2.6 4.35 1.74 9.01 11.47 12.3l9 3.05-7.84 1.56c-4.32 0.85-10.31-0.31-13.33-2.59zm106.67-24.09c0-2.46 1.2-5.23 2.67-6.17s3.39-6.25 4.27-11.8c0.88-5.56 2.91-16.37 4.5-24.04 2.95-14.18 2.66-54.04-0.58-82.1-1.73-14.9-2.24-64.35-0.87-83.66 2.28-32.19 34.68-101.5 51.04-109.2 7.03-3.3 7.2-3.01 9.02 14.96 2.01 19.89 14.96 49.92 25.93 60.16 3.65 3.41 10.05 12.21 14.23 19.56 6.56 11.57 7.62 17.26 7.88 42.4 0.16 15.97-0.76 30.14-2.06 31.48-2.75 2.84-8.34-5.21-6.16-8.86 2.51-4.19-2.51-2.73-6.04 1.76-1.83 2.33-13.9 5.69-26.82 7.47-20.9 2.88-24.47 4.36-32.31 13.42-4.84 5.61-8.37 11.53-7.84 13.17 1 3.1 40.9 3.07 59.14-0.04 5.77-0.99 12.97-4.77 15.98-8.41l5.48-6.61-2.09 9.3c-1.14 5.11-2.3 16.56-2.56 25.45-0.61 20.23-5.28 25.66-54.31 63.07-19.8 15.1-39.91 30.99-44.69 35.31-9.85 8.89-13.81 9.86-13.81 3.38zm101.31-219.19c-1.85-5.75-8.31-6.7-8.31-1.23 0 2.7 2.14 4.91 4.75 4.91s4.22-1.66 3.56-3.68zm135.22 212.51c-7.17-6.13-29.23-27.55-49.04-47.6l-36-36.46 1-19.78c0.55-10.89 1.26-27.72 1.57-37.41 0.31-9.7 1.38-18.46 2.36-19.48 2.62-2.7 5.8 16.43 4.03 24.23-0.83 3.67-0.23 8.71 1.34 11.2 2.44 3.89 3.68 3.74 8.8-1.04 3.27-3.06 9.67-11.37 14.21-18.47 4.54-7.09 11.7-16 15.92-19.78 13.03-11.71 4.34-14.53-17.08-5.54-21.43 8.99-23.67 9.39-18.8 3.32 1.97-2.44 7.39-5.31 12.04-6.37 10.94-2.48 30.36-15.34 51.12-33.86 18.99-16.94 41.62-29.56 69.93-39.01 19.29-6.43 20.05-6.46 27.13-0.97l7.28 5.66-6.08 12.39c-3.35 6.82-10.12 18.48-15.05 25.91-6.72 10.13-8.02 14.12-5.18 15.94 2.91 1.85 1.57 7.94-5.7 25.97-9.54 23.66-15.07 54.45-15.24 84.86-0.12 20.74-3.99 22.45-23.23 10.23-8.16-5.19-21.31-12.39-29.23-16-11.77-5.38-14.86-5.82-16.97-2.39-6.72 10.97-1.61 15.16 31.84 26.12 18.29 6 21.12 7.92 21.95 14.94 0.96 8.12-1.84 10.27-7.1 5.44-5.47-5.01-37.04-16.53-40.05-14.61-1.67 1.06-5.43-1.94-8.35-6.68-11.18-18.14-15.95-17.45-15.95 2.3 0 14.08 0.79 15.89 8.25 19.01 4.54 1.89 11.87 3.24 16.31 2.99 4.43-0.25 14.68 2.24 22.79 5.54 10.13 4.12 18.63 5.46 27.19 4.27 11.16-1.54 12.46-1.05 12.46 4.74 0 16.16-14.41 31.53-29.57 31.53-3.22 0-11.73-5.01-18.9-11.14zm-50.72-93.86c-7.02-15.02-21.94-22.12-26.79-12.77-4.19 8.09-3.78 20.89 0.73 22.77 2.06 0.86 10.04 1.68 17.73 1.81l13.98 0.25-5.65-12.06zm91.4-50.16c5.93-12.06 10.79-23.38 10.79-25.15 0-3.91-61.75-0.23-69.75 4.15-4.17 2.29-5.25 6.99-5.25 22.91v20.03h26.71 26.71l10.79-21.94zm-530.21 143.8c-3.02-3.12-2.4-10.33 0.89-10.33 1.6 0 4.34 2.79 6.11 6.2 2.48 4.79 2.28 6.2-0.89 6.2-2.26 0-5.01-0.93-6.11-2.07zm-22.87-39.58c-6.633-9.27-14.385-22.17-17.226-28.66-2.842-6.49-6.726-13.89-8.631-16.44-3.843-5.16-21.876-56.01-24.174-68.16-0.805-4.26-2.082-10.89-2.839-14.72-0.834-4.23-3.575-6.97-6.968-6.97-3.244 0-6.319-2.87-7.323-6.84-2.217-8.75 0.594-11.79 4.405-4.75 1.608 2.96 4.09 5.39 5.516 5.39 3.349 0 29.104-33.44 45.687-59.33 15.233-23.77 56.763-76.42 60.563-76.75 1.45-0.13 1.75 6.63 0.67 15.02-4.05 31.52 13.77 16.82 19.27-15.9 1.92-11.43 5.05-22.01 6.95-23.51 1.91-1.5 11.57-5.02 21.47-7.83 9.9-2.8 20.02-7.84 22.5-11.19 18.34-24.88 24.6-34.7 23.12-36.22-0.94-0.97-9.4 1.21-18.81 4.84-9.4 3.63-17.66 6.03-18.34 5.32-3.71-3.82 69.92-51.6 79.52-51.6 4.41 0 3.17 2.49-7.72 15.49-8.82 10.53-27.77 36.64-27.77 38.26 0 0.96-3.51 7.03-7.8 13.5s-9.01 14.54-10.49 17.95-3.82 8.29-5.2 10.85c-6.6 12.26-12.51 25.57-12.51 28.16 0 1.59-2.54 8.8-5.65 16.02-9.03 21.02-23.46 67.48-23.81 76.65-0.09 2.55-1.69 10.22-3.54 17.04-1.85 6.81-3.93 15.18-4.64 18.59-0.7 3.4-2.57 11.77-4.15 18.58-1.59 6.82-4.8 20.76-7.15 30.99-5.51 24.01-24.01 71.92-29.31 75.9-1.13 0.85-2.57 4.32-3.19 7.71-1.23 6.73-11.56 10.64-11.56 4.38 0-2.12-2.24-6.41-4.98-9.54-5.5-6.27-3.05-12.07 2.63-6.21 1.95 2.01 6.07 3.66 9.15 3.66 6.79 0 5.19-7.25-5.97-27.1-6.34-11.29-23.99-28.5-25.76-25.13-0.33 0.61-3.624 5.59-7.331 11.06-3.706 5.47-6.739 12.47-6.739 15.57 0 5.21 29.29 46.1 36.16 50.49 3.41 2.18 0.63 12.29-3.39 12.29-1.42 0-8.01-7.58-14.64-16.86zm-33.13-152.36c0-2.55-1.35-3.78-3-2.73s-3 4.01-3 6.56c0 2.56 1.35 3.79 3 2.74 1.65-1.06 3-4.01 3-6.57zm49.28-60.52c6.05-12.53 5.94-15.02-0.68-15.02-7.79 0-12.6 6.15-12.6 16.11 0 11.82 7.33 11.22 13.28-1.09z"/>
      <path id="path14313" style="stroke:url(#linearGradient15795);fill:url(#linearGradient15803)" d="m367.75 768.82c-19.38-3.33-18.8-8.45 1.73-15.23 13.68-4.52 15.14-3.52 11.97 8.21-2.26 8.36-3.18 8.83-13.7 7.02zm-196.95-19.61c-1.91-2.37-7.52-6.05-12.47-8.16-13.85-5.93-8.35-6.94 7.51-1.38 10.99 3.86 15.06 4.14 18.4 1.28 2.36-2.02 4.29-4.91 4.29-6.43 0-1.51 4.41-9.36 9.8-17.43 14.95-22.42 26.84-50.97 35.15-84.4 8.1-32.55 4.21-29.31 36.54-30.46 15.86-0.57 29.57 0.17 30.45 1.65 2.11 3.52-5.01 42.59-13.36 73.34l-6.62 24.39-20.82-1.54c-11.51-0.85-21.82-3.21-23.06-5.28-1.63-2.72-2.77-2.33-4.16 1.41-3.68 9.9-1.76 10.85 22.08 10.85 26.81 0 25.74-1.31 20.45 25.1-3.42 17.12-3.91 17.78-14.25 19.22-5.88 0.82-24.69 0.13-41.79-1.54-22.01-2.15-32.05-2.05-34.35 0.33-4.44 4.58-9.63 4.22-13.79-0.95zm212.73-16.89c0-1.77 1.17-3.96 2.59-4.87 1.43-0.91 3.54-7.62 4.68-14.9 1.14-7.29 2.73-17.43 3.52-22.54 3.15-20.23 3.04-57.19-0.25-84.39-4.21-34.78-3.43-79.76 1.65-95.84 10.35-32.73 16.02-47.31 24-61.75 9.57-17.31 23.23-32.95 26.8-30.67 1.24 0.79 2.85 8.86 3.58 17.93 1.66 20.71 11.76 42.8 28.39 62.11 7.09 8.23 14.27 20.08 15.95 26.33 4.26 15.83 3.99 43.9-0.42 43.9-1.92 0-12.9-7.08-24.38-15.73-19.47-14.67-20.75-15.2-18.94-7.75 1.11 4.57 0.67 7.99-1.04 7.99-4.06 0-12.82 18.03-10.58 21.78 1.02 1.69-2.18 3-7.3 3-11.44 0-17.44 8.92-18.77 27.89l-0.98 13.94 18-0.05c9.9-0.03 27.79-1.21 39.75-2.64l21.75-2.59v16.88c0 15.11-1.11 18.06-10.53 28.08-5.79 6.16-25.71 22.32-44.25 35.92-18.55 13.59-38.11 28.42-43.47 32.96-5.36 4.53-9.75 6.78-9.75 5.01zm96.6-200.66c-1.97-3.63-1.91-7.19 0.19-10.67 1.74-2.86 2.29-7.54 1.23-10.4-1.55-4.18-3.13-4.53-8.05-1.81-4.75 2.63-7.15 2.31-10.78-1.45-4.56-4.7-10.19-3.96-10.19 1.35 0 3.19 27.88 31.19 29.45 29.57 0.6-0.63-0.23-3.59-1.85-6.59zm147.58 200.9c-3.98-2.72-16.83-32.07-14.91-34.05 0.74-0.76 8.18 0.96 16.53 3.82 9.01 3.1 18.74 4.41 23.91 3.24 11.18-2.54 13.76 1.94 7.88 13.69-6.86 13.71-23.28 20.24-33.41 13.3zm-500.68-10.02c-1.02-1.7-0.42-3.1 1.32-3.1 1.75 0 3.18 1.4 3.18 3.1s-0.6 3.1-1.32 3.1c-0.73 0-2.16-1.4-3.18-3.1zm466.34-20.41l-10.34-11.11 10.19 4.24c5.61 2.33 11.3 7.33 12.65 11.11 3.55 9.91-0.67 8.48-12.5-4.24zm-486.5-15.85c-12.41-17.76-15.222-22.61-13.115-22.61 2.79 0 26.675 34.19 25.055 35.86-0.86 0.89-6.23-5.07-11.94-13.25zm449.23-21.68l-17.92-17.44 16.2 1.98c8.91 1.09 17.29 3.76 18.63 5.93 2.14 3.49 3.7 27.37 1.77 27.08-0.41-0.06-8.82-7.96-18.68-17.55zm-406.66-37.34c1-8.1 2.86-16.46 4.12-18.56 1.25-2.11 4.96-18.13 8.23-35.62 3.27-17.48 7.11-36.66 8.54-42.63 1.42-5.96 3.32-15.13 4.21-20.38l1.63-9.53-15.93 1.36c-10.44 0.9-16.7 0.09-18.16-2.35-2.44-4.07 10.72-31.62 20.4-42.68 4.3-4.92 9.48-6.97 17.57-6.97 8.12 0 11.48-1.34 11.48-4.57 0-3.68-1.57-3.96-8.02-1.43-13.72 5.39-15.81 2.4-11.36-16.23 2.17-9.08 5.05-22.04 6.41-28.8 2.41-11.99 2.99-12.47 22.85-18.61 19.37-5.99 21.11-7.33 35.25-27.22 20.81-29.27 20.13-31.56-6.22-20.84-8.42 3.43-14.45 4.81-13.41 3.06 4.16-6.95 66.7-45.23 69.38-42.46 0.88 0.91-4.65 9.59-12.3 19.29-26.11 33.11-45.12 67-58.59 104.44-3.51 9.77-7.64 18.56-9.18 19.55-1.55 0.98-2.81 5.11-2.81 9.17s-1.19 8.14-2.65 9.07c-1.46 0.94-3.38 5.55-4.26 10.26-0.88 4.7-3.13 14.13-5.01 20.95-1.87 6.81-3.72 15.18-4.09 18.59-0.38 3.4-2.35 12.47-4.39 20.14-2.03 7.66-4.99 18.82-6.57 24.78s-5.71 23.11-9.18 38.09c-5.39 23.31-16.3 54.86-18.95 54.86-0.45 0 0-6.63 1.01-14.73zm-77.686-7.28c-3.761-10.9-9.281-26.09-12.268-33.76-5.935-15.24-8.418-36.76-4.917-42.61 3.034-5.07 40.809 26.69 40.896 34.39 0.036 3.14-2.862 9.96-6.44 15.15-5.997 8.7-6.114 9.73-1.5 13.21 6.93 5.23 6.231 13.87-1.98 24.46l-6.954 8.98-6.837-19.82zm505.36 4.09c-4.85-8.04-10.08-15.51-11.61-16.61-4.52-3.23 0.11-15.8 10.1-27.44l9.31-10.84-1.69 17.6c-1.54 16-1.11 17.8 4.66 19.69 5.48 1.8 6.13 3.8 4.74 14.53-2.41 18.57-5.75 19.23-15.51 3.07zm12.03-71.59c-1.11-3.59-3.31-6.54-4.89-6.54-8.2 0 42.4-39.08 64.17-49.56 34.47-16.6 49.58-20.47 55.61-14.25 4.22 4.37 4.22 5.79-0.04 14.95-4.78 10.3-31.59 48.82-36.42 52.33-1.45 1.06-14.32 2.87-28.59 4.03s-30.87 2.89-36.89 3.85c-9.29 1.47-11.25 0.75-12.95-4.81zm-498.67-38.76l-9.558-3.59 8.638-14.33c10.078-16.73 13.699-19.73 16.069-13.35 1.94 5.22 22.91 6.62 22.91 1.53 0-1.71-2.06-3.1-4.58-3.1-4.1 0-4.1-0.95 0-9.14 5.77-11.51 5.79-15.65 0.08-15.65-6.54 0-5.65-2.57 5.25-15.11 5.37-6.17 12.87-15.4 16.68-20.52l6.92-9.29-1.97 15.45c-1.08 8.5-3.84 19.2-6.14 23.79-2.5 4.99-3.43 12.17-2.33 17.86 1.61 8.31 0.27 11-10.53 21.2-6.81 6.43-12.38 13.81-12.38 16.42 0 11.63-11.05 14.61-29.059 7.83zm188.55-7.31l-34.01-0.95 1.5-17.71c2.59-30.37 7.3-53.86 14.12-70.38 12.38-29.99 19.25-43.88 28.32-57.21 5.82-8.55 10.58-16.36 10.58-17.35 0-2.62 24.28-34.39 39.75-52.01 16.1-18.34 21.32-19.68 88.11-22.55l48.37-2.09 10.88 16.7c5.99 9.18 10.89 18.12 10.89 19.86 0 3.81-5.11 7.2-36.36 24.18-38.28 20.8-68.28 40.98-70.74 47.58-0.85 2.29-3.42 4.16-5.72 4.16s-4.18 1.04-4.18 2.32c-0.01 2.21-8.63 13.59-20.54 27.11-3.01 3.41-9.88 15.96-15.27 27.89-5.39 11.92-11.69 25.38-14 29.91-2.3 4.52-4.19 10.86-4.19 14.09s-1.24 7.2-2.75 8.82-3.19 6.32-3.75 10.45c-1.18 8.87 1.59 8.38-41.01 7.18z"/>
      <path id="path14311" style="stroke:url(#linearGradient15795);fill:url(#linearGradient15803)" d="m364.78 766.79c-10.93-1.7-10.44-5.67 1.2-9.87 13.03-4.69 13.8-4.44 13.8 4.35 0 4.26-1.52 7.54-3.38 7.28-1.85-0.26-7.08-1.05-11.62-1.76zm-189.72-16.31c-1.04-1.74 0.22-3.15 2.79-3.15 5.27 0 6.05 1.86 1.89 4.51-1.54 0.98-3.64 0.37-4.68-1.36zm20.22-5.34c-3.71-0.74-6.75-2.14-6.75-3.11s4.25-8.89 9.45-17.6c16.1-26.96 20.38-35.62 26.54-53.73 7.99-23.47 13.36-28.7 10.43-10.16-1.2 7.64-4.04 19.32-6.3 25.95-8.34 24.41-6.02 26.76 26.45 26.76 18.95 0 20.84 0.54 18.77 5.42-1.27 2.98-2.91 10.65-3.64 17.04l-1.33 11.62-33.44-0.43c-18.38-0.23-36.47-1.02-40.18-1.76zm431.25-28.4c0-8.36 4.51-10.73 12.26-6.45 6.91 3.82 5.12 7.24-5.51 10.56-5.44 1.7-6.75 0.9-6.75-4.11zm-232.94-8.5c8.41-51.21 9.11-68.83 4.02-101.3-7.32-46.68-5.87-82.98 4.48-112.12 7.78-21.91 27.73-60.9 35.03-68.45l7.91-8.18 1.86 15.08c1.02 8.29 4.25 20.66 7.17 27.47 2.92 6.82 5.46 16.58 5.64 21.69 0.22 6.14 1.73 8.99 4.46 8.39 4.36-0.96 15.37 7.8 15.37 12.23 0 4.47-11.06 2.87-15.12-2.18-5.54-6.89-16.18-4.43-17.34 4.02-1.16 8.47 30.29 44.15 38.92 44.15 6.69 0 6.72-0.39 1.06-14.36-2.75-6.81-3.49-12.88-1.91-15.79 4.16-7.68 7.08 0.62 8.76 24.89l1.51 21.79-14.14-10.49c-17.79-13.19-40.74-38.34-40.74-44.63 0-2.63-1.79-4.78-3.97-4.78-3.94 0-14.43 30.8-20.06 58.86-1.54 7.67-4.86 23.01-7.38 34.08-5.59 24.53-3.5 49.93 4.73 57.62 3.77 3.52 5.71 9.58 5.78 17.99 0.08 11.94 0.35 12.33 4.58 6.56 2.83-3.88 3.82-9.31 2.67-14.72-1.36-6.38-0.68-8.58 2.64-8.58 6.28 0 19.11-16.61 21.49-27.81 1.47-6.9 3.71-9.38 8.51-9.4 3.58-0.02 11.57-0.9 17.76-1.96l11.25-1.92v15.79c0 13.78-1.27 17.1-9.96 25.97-5.47 5.59-19.92 17.14-32.1 25.66s-24.63 17.98-27.65 21.03c-6.5 6.53-11.29 4.49-11.29-4.79 0-9.55-5.32-2.77-6.52 8.31-0.54 4.98-2.87 9.7-5.19 10.48-3.34 1.14-3.8-1.05-2.23-10.6zm55.26-29.85c5.43-6.88 12.46-27.11 9.43-27.11-1.62 0-3.79 2.44-4.83 5.42-1.04 2.99-4.38 9.13-7.41 13.65s-5.51 9.05-5.51 10.07c0 3.24 5.16 1.98 8.32-2.03zm-374.97-57.28c-13.989-35.5-17.351-47.27-17.351-60.72v-14.87l8.25 6.18c4.537 3.4 12.896 10.25 18.576 15.21l10.326 9.04-6.576 11.51c-7.708 13.49-8.307 19.96-2.076 22.42 6.174 2.45 5.65 11.48-1.028 17.72-5.245 4.91-5.762 4.58-10.121-6.49zm518.41-68.19c-4.9-5.05-0.23-14.1 13.99-27.08 16.27-14.88 49.18-32.57 60.56-32.57 3.57 0 7.86-1.42 9.54-3.15 4.86-5.01 20.96-8.81 25.39-5.99 5.53 3.53-0.95 17.19-20.09 42.35-13.06 17.17-15.82 19.27-25.45 19.36-5.94 0.06-14.72 1.38-19.5 2.95-11.11 3.63-42.14 6.51-44.44 4.13zm-495.62-57.95c-3.112-8.37 1.77-11.19 9.88-5.71 7.1 4.81 7.26 5.4 2.09 7.5-8.39 3.4-10.138 3.14-11.97-1.79zm49.93-2.55c0.14-7.93 10.79-17.01 22-18.75 9.77-1.52 11.8-0.86 13.1 4.25 0.84 3.33 2.83 6.06 4.43 6.06 1.59 0 2.38 1.6 1.75 3.56-0.63 1.95-6.48 4.03-13 4.61-6.52 0.59-15.56 1.74-20.1 2.56-5.32 0.97-8.23 0.16-8.18-2.29zm-18.3-36.05c-4.37-4.99-3.72-6.57 8.5-20.65 12.71-14.65 13.17-14.89 11.41-5.96-2.09 10.58-11.42 32.57-13.68 32.24-0.83-0.13-3.63-2.66-6.23-5.63zm46.44-23.84c1.09-2.95 2.82-13.61 3.84-23.71 2.07-20.41 1.78-20.15 31.7-28.76 9.49-2.73 17.25-6.49 17.25-8.35 0-1.87 0.82-2.55 1.83-1.51s-2.3 10.69-7.36 21.43c-5.05 10.75-10.94 24.96-13.08 31.59-3.79 11.73-4.31 12.08-20.03 13.36-14.34 1.16-15.92 0.7-14.15-4.05zm143.34-35.26c-20.31-4.79-37.75-9.54-38.73-10.56-5.81-6 58.46-97.94 75.37-107.82 6.92-4.04 54.07-8.69 88.1-8.69h33.96l8.86 14.72c4.87 8.09 9.2 15.85 9.62 17.24s-11.38 9.17-26.23 17.28c-14.85 8.12-32.71 18.49-39.69 23.04s-13.58 8.28-14.68 8.28c-2.39 0-34.8 27.96-37.62 32.45-1.09 1.75-4.8 6.52-8.25 10.62-3.44 4.09-6.26 8.63-6.26 10.07 0 3.63-2.56 3.25-44.45-6.63zm-63.55-71.65c0-2.07-3.6-2.91-9-2.09-4.95 0.75-9 1.07-9 0.71 0-1.2 40.82-26.15 42.78-26.15 1.05 0-2.74 5.22-8.42 11.61s-10.34 13.36-10.35 15.49c0 2.13-1.36 3.88-3.01 3.88s-3-1.55-3-3.45z"/>
    </g>
  </g>
  <metadata>
    <rdf:RDF>
      <cc:Work>
        <dc:format>image/svg+xml</dc:format>
        <dc:type rdf:resource="http://purl.org/dc/dcmitype/StillImage"/>
        <cc:license rdf:resource="http://creativecommons.org/licenses/publicdomain/"/>
        <dc:publisher>
          <cc:Agent rdf:about="http://openclipart.org/">
            <dc:title>Openclipart</dc:title>
          </cc:Agent>
        </dc:publisher>
        <dc:title>DECOR-08</dc:title>
        <dc:date>2010-08-25T13:49:23</dc:date>
        <dc:description/>
        <dc:source>https://openclipart.org/detail/82153/decor-08-by-waferd</dc:source>
        <dc:creator>
          <cc:Agent>
            <dc:title>waferd</dc:title>
          </cc:Agent>
        </dc:creator>
        <dc:subject>
          <rdf:Bag>
            <rdf:li>decoration</rdf:li>
            <rdf:li>fish</rdf:li>
          </rdf:Bag>
        </dc:subject>
      </cc:Work>
      <cc:License rdf:about="http://creativecommons.org/licenses/publicdomain/">
        <cc:permits rdf:resource="http://creativecommons.org/ns#Reproduction"/>
        <cc:permits rdf:resource="http://creativecommons.org/ns#Distribution"/>
        <cc:permits rdf:resource="http://creativecommons.org/ns#DerivativeWorks"/>
      </cc:License>
    </rdf:RDF>
  </metadata>
</svg>
